<?xml version="1.0" encoding="utf-8" standalone="no"?>
<!DOCTYPE svg PUBLIC "-//W3C//DTD SVG 1.1//EN"
  "http://www.w3.org/Graphics/SVG/1.1/DTD/svg11.dtd">
<svg xmlns:xlink="http://www.w3.org/1999/xlink" width="230.141469pt" height="106.589063pt" viewBox="0 0 230.141469 106.589063" xmlns="http://www.w3.org/2000/svg" version="1.1">
 <metadata>
  <rdf:RDF xmlns:dc="http://purl.org/dc/elements/1.1/" xmlns:cc="http://creativecommons.org/ns#" xmlns:rdf="http://www.w3.org/1999/02/22-rdf-syntax-ns#">
   <cc:Work>
    <dc:type rdf:resource="http://purl.org/dc/dcmitype/StillImage"/>
    <dc:date>2026-07-20T18:49:55.312971</dc:date>
    <dc:format>image/svg+xml</dc:format>
    <dc:creator>
     <cc:Agent>
      <dc:title>Matplotlib v3.9.4, https://matplotlib.org/</dc:title>
     </cc:Agent>
    </dc:creator>
   </cc:Work>
  </rdf:RDF>
 </metadata>
 <defs>
  <style type="text/css">*{stroke-linejoin: round; stroke-linecap: butt}</style>
 </defs>
 <g id="figure_1">
  <g id="patch_1">
   <path d="M 0 106.589063 
L 230.141469 106.589063 
L 230.141469 0 
L 0 0 
L 0 106.589063 
z
" style="fill: none"/>
  </g>
  <g id="text_1">
   <!-- $R_{\mathrm{credit}}(t) \;=\; \mathrm{HYG}(t)\, /\, \mathrm{LQD}(t)$ -->
   <g transform="translate(0 15.284062) scale(0.13 -0.13)">
    <defs>
     <path id="STIXGeneral-Italic-52" d="M 845 4179 
L 2458 4179 
Q 3078 4179 3420 3936 
Q 3763 3693 3763 3277 
Q 3763 2778 3341 2458 
Q 3091 2266 2502 2131 
L 3072 627 
Q 3181 333 3299 217 
Q 3418 102 3629 102 
L 3629 0 
L 2688 0 
L 1901 2074 
L 1478 2106 
L 1126 806 
Q 1043 512 1043 403 
Q 1043 256 1126 192 
Q 1210 128 1472 102 
L 1472 0 
L -83 0 
L -83 102 
Q 173 134 278 243 
Q 384 352 461 646 
L 1222 3405 
Q 1299 3699 1299 3808 
Q 1299 3923 1210 3987 
Q 1133 4038 845 4077 
L 845 4179 
z
M 1958 3795 
L 1555 2342 
Q 1754 2310 1882 2310 
Q 2451 2310 2771 2566 
Q 3091 2822 3091 3270 
Q 3091 3603 2892 3795 
Q 2694 3987 2323 3987 
Q 2010 3987 1958 3795 
z
" transform="scale(0.015625)"/>
     <path id="STIXGeneral-Regular-63" d="M 2547 998 
L 2637 941 
Q 2362 403 2112 205 
Q 1786 -64 1376 -64 
Q 845 -64 502 336 
Q 160 736 160 1357 
Q 160 2170 698 2618 
Q 1094 2944 1562 2944 
Q 1965 2944 2256 2749 
Q 2547 2554 2547 2285 
Q 2547 2176 2457 2096 
Q 2368 2016 2246 2016 
Q 2022 2016 1939 2310 
L 1901 2451 
Q 1850 2630 1773 2694 
Q 1696 2758 1523 2758 
Q 1133 2758 893 2451 
Q 653 2144 653 1645 
Q 653 1094 928 745 
Q 1203 397 1645 397 
Q 1920 397 2118 528 
Q 2317 659 2547 998 
z
" transform="scale(0.015625)"/>
     <path id="STIXGeneral-Regular-72" d="M 1024 2931 
L 1024 2342 
Q 1267 2688 1430 2816 
Q 1594 2944 1792 2944 
Q 1958 2944 2051 2854 
Q 2144 2765 2144 2605 
Q 2144 2470 2077 2393 
Q 2010 2317 1894 2317 
Q 1773 2317 1638 2445 
Q 1536 2541 1472 2541 
Q 1338 2541 1181 2355 
Q 1024 2170 1024 2016 
L 1024 576 
Q 1024 301 1133 205 
Q 1242 109 1568 96 
L 1568 0 
L 32 0 
L 32 96 
Q 339 154 412 224 
Q 486 294 486 538 
L 486 2138 
Q 486 2349 438 2435 
Q 390 2522 269 2522 
Q 166 2522 45 2496 
L 45 2598 
Q 448 2726 992 2944 
L 1024 2931 
z
" transform="scale(0.015625)"/>
     <path id="STIXGeneral-Regular-65" d="M 2611 1050 
L 2714 1005 
Q 2330 -64 1376 -64 
Q 813 -64 486 329 
Q 160 723 160 1389 
Q 160 2074 525 2509 
Q 890 2944 1485 2944 
Q 2061 2944 2374 2502 
Q 2560 2246 2592 1773 
L 621 1773 
Q 646 1370 700 1158 
Q 755 947 915 730 
Q 1184 378 1626 378 
Q 1939 378 2153 531 
Q 2368 685 2611 1050 
z
M 634 1978 
L 1939 1978 
Q 1882 2381 1750 2547 
Q 1619 2714 1312 2714 
Q 1043 2714 864 2525 
Q 685 2336 634 1978 
z
" transform="scale(0.015625)"/>
     <path id="STIXGeneral-Regular-64" d="M 3142 269 
L 2202 -64 
L 2176 -45 
L 2176 365 
Q 1869 -64 1357 -64 
Q 826 -64 499 317 
Q 173 698 173 1312 
Q 173 1990 563 2467 
Q 954 2944 1504 2944 
Q 1850 2944 2176 2669 
L 2176 3667 
Q 2176 3866 2118 3930 
Q 2061 3994 1882 3994 
Q 1792 3994 1741 3987 
L 1741 4090 
Q 2323 4243 2682 4371 
L 2714 4358 
L 2714 730 
Q 2714 506 2768 435 
Q 2822 365 2995 365 
Q 3034 365 3142 371 
L 3142 269 
z
M 2176 653 
L 2176 2125 
Q 2176 2381 1981 2573 
Q 1786 2765 1523 2765 
Q 1158 2765 940 2438 
Q 723 2112 723 1568 
Q 723 979 963 624 
Q 1203 269 1606 269 
Q 1907 269 2080 474 
Q 2176 582 2176 653 
z
" transform="scale(0.015625)"/>
     <path id="STIXGeneral-Regular-69" d="M 1152 4045 
Q 1152 3904 1056 3811 
Q 960 3718 819 3718 
Q 685 3718 592 3811 
Q 499 3904 499 4045 
Q 499 4179 595 4275 
Q 691 4371 826 4371 
Q 966 4371 1059 4275 
Q 1152 4179 1152 4045 
z
M 1619 0 
L 102 0 
L 102 96 
Q 435 115 521 211 
Q 608 307 608 666 
L 608 2118 
Q 608 2342 563 2432 
Q 518 2522 397 2522 
Q 243 2522 128 2490 
L 128 2592 
L 1120 2944 
L 1146 2918 
L 1146 672 
Q 1146 314 1226 218 
Q 1306 122 1619 96 
L 1619 0 
z
" transform="scale(0.015625)"/>
     <path id="STIXGeneral-Regular-74" d="M 1702 493 
L 1786 422 
Q 1478 -64 1011 -64 
Q 448 -64 448 749 
L 448 2675 
L 109 2675 
Q 83 2694 83 2720 
Q 83 2771 192 2842 
Q 435 2982 813 3526 
Q 826 3546 874 3606 
Q 922 3667 941 3706 
Q 986 3706 986 3622 
L 986 2880 
L 1632 2880 
L 1632 2675 
L 986 2675 
L 986 845 
Q 986 538 1062 403 
Q 1139 269 1318 269 
Q 1510 269 1702 493 
z
" transform="scale(0.015625)"/>
     <path id="STIXGeneral-Regular-28" d="M 1946 -1030 
L 1869 -1133 
Q 1126 -710 716 32 
Q 307 774 307 1613 
Q 307 3386 1888 4326 
L 1946 4224 
Q 1293 3667 1075 3126 
Q 858 2586 858 1632 
Q 858 685 1082 96 
Q 1306 -493 1946 -1030 
z
" transform="scale(0.015625)"/>
     <path id="STIXGeneral-Italic-74" d="M 1894 2739 
L 1862 2534 
L 1325 2534 
L 768 435 
Q 755 384 755 346 
Q 755 243 851 243 
Q 928 243 1030 342 
Q 1133 442 1370 749 
L 1453 704 
Q 1158 256 969 93 
Q 781 -70 538 -70 
Q 243 -70 243 166 
Q 243 230 346 640 
L 845 2534 
L 365 2534 
L 358 2573 
Q 358 2688 570 2733 
Q 730 2771 992 2979 
Q 1254 3187 1421 3437 
Q 1459 3494 1510 3494 
Q 1568 3494 1568 3443 
Q 1568 3411 1562 3398 
L 1382 2739 
L 1894 2739 
z
" transform="scale(0.015625)"/>
     <path id="STIXGeneral-Regular-29" d="M 186 4224 
L 262 4326 
Q 992 3891 1408 3148 
Q 1824 2406 1824 1581 
Q 1824 -166 243 -1133 
L 186 -1030 
Q 845 -486 1059 54 
Q 1274 595 1274 1562 
Q 1274 2534 1059 3120 
Q 845 3706 186 4224 
z
" transform="scale(0.015625)"/>
     <path id="STIXGeneral-Regular-3d" d="M 4077 2048 
L 307 2048 
L 307 2470 
L 4077 2470 
L 4077 2048 
z
M 4077 768 
L 307 768 
L 307 1190 
L 4077 1190 
L 4077 768 
z
" transform="scale(0.015625)"/>
     <path id="STIXGeneral-Regular-48" d="M 4499 0 
L 2714 0 
L 2714 122 
Q 3085 147 3181 265 
Q 3277 384 3277 794 
L 3277 2016 
L 1338 2016 
L 1338 723 
Q 1338 371 1440 256 
Q 1542 141 1894 122 
L 1901 0 
L 115 0 
L 115 122 
Q 493 147 589 259 
Q 685 371 685 781 
L 685 3507 
Q 685 3878 585 3980 
Q 486 4083 115 4115 
L 115 4237 
L 1907 4237 
L 1907 4115 
Q 1549 4083 1443 3977 
Q 1338 3872 1338 3507 
L 1338 2298 
L 3277 2298 
L 3277 3507 
Q 3277 3878 3177 3980 
Q 3078 4083 2707 4115 
L 2707 4237 
L 4499 4237 
L 4499 4115 
Q 4141 4083 4035 3977 
Q 3930 3872 3930 3507 
L 3930 710 
Q 3930 371 4035 259 
Q 4141 147 4499 122 
L 4499 0 
z
" transform="scale(0.015625)"/>
     <path id="STIXGeneral-Regular-59" d="M 4499 4237 
L 4499 4115 
Q 4218 4090 4054 3955 
Q 3891 3821 3616 3398 
L 2669 1939 
L 2669 710 
Q 2669 346 2790 243 
Q 2912 141 3328 122 
L 3328 0 
L 1370 0 
L 1370 122 
Q 1805 154 1910 259 
Q 2016 365 2016 787 
L 2016 1882 
L 1178 3110 
Q 742 3750 556 3926 
Q 371 4102 141 4115 
L 141 4237 
L 1926 4237 
L 1926 4115 
L 1773 4109 
Q 1472 4102 1472 3942 
Q 1472 3808 1587 3642 
L 2522 2227 
L 3450 3648 
Q 3539 3782 3539 3917 
Q 3533 4026 3440 4067 
Q 3347 4109 3104 4115 
L 3104 4237 
L 4499 4237 
z
" transform="scale(0.015625)"/>
     <path id="STIXGeneral-Regular-47" d="M 4538 2266 
L 4538 2150 
Q 4256 2125 4173 2035 
Q 4090 1946 4090 1638 
L 4090 358 
Q 3539 -90 2464 -90 
Q 1965 -90 1507 89 
Q 1050 269 736 595 
Q 205 1152 205 2093 
Q 205 3155 890 3776 
Q 1491 4326 2419 4326 
Q 2829 4326 3270 4179 
Q 3443 4115 3552 4115 
Q 3654 4115 3731 4176 
Q 3808 4237 3840 4326 
L 3981 4326 
L 4032 2976 
L 3885 2976 
Q 3680 3475 3430 3718 
Q 3059 4070 2496 4070 
Q 1856 4070 1427 3629 
Q 934 3136 934 2074 
Q 934 1190 1395 678 
Q 1856 166 2618 166 
Q 2982 166 3225 281 
Q 3469 397 3469 557 
L 3469 1562 
Q 3469 1933 3376 2025 
Q 3283 2118 2899 2150 
L 2899 2266 
L 4538 2266 
z
" transform="scale(0.015625)"/>
     <path id="STIXGeneral-Regular-2f" d="M 1837 4326 
L 378 -90 
L -58 -90 
L 1408 4326 
L 1837 4326 
z
" transform="scale(0.015625)"/>
     <path id="STIXGeneral-Regular-4c" d="M 3827 1114 
L 3520 0 
L 77 0 
L 77 122 
Q 429 141 531 256 
Q 634 371 634 736 
L 634 3494 
Q 634 3872 541 3981 
Q 448 4090 77 4115 
L 77 4237 
L 1888 4237 
L 1888 4115 
Q 1498 4090 1392 3984 
Q 1286 3878 1286 3507 
L 1286 538 
Q 1286 358 1398 304 
Q 1510 250 1862 250 
L 2310 250 
Q 3085 250 3392 640 
Q 3520 813 3661 1114 
L 3827 1114 
z
" transform="scale(0.015625)"/>
     <path id="STIXGeneral-Regular-51" d="M 4486 -1133 
L 4179 -1133 
Q 2586 -1133 1958 -339 
L 1696 -6 
Q 1312 128 1097 265 
Q 883 403 704 640 
Q 218 1286 218 2125 
Q 218 3123 806 3724 
Q 1395 4326 2310 4326 
Q 3232 4326 3817 3721 
Q 4403 3117 4403 2131 
Q 4403 1568 4236 1158 
Q 4070 749 3712 410 
Q 3514 211 3293 115 
Q 3072 19 2726 -45 
Q 3066 -531 3491 -758 
Q 3917 -986 4486 -1018 
L 4486 -1133 
z
M 3674 2163 
Q 3674 2714 3520 3146 
Q 3366 3578 3091 3808 
Q 2746 4096 2291 4096 
Q 1741 4096 1370 3642 
Q 1178 3418 1062 3008 
Q 947 2598 947 2144 
Q 947 1158 1318 640 
Q 1472 416 1750 278 
Q 2029 141 2310 141 
Q 2867 141 3264 602 
Q 3456 819 3565 1248 
Q 3674 1677 3674 2163 
z
" transform="scale(0.015625)"/>
     <path id="STIXGeneral-Regular-44" d="M 102 4237 
L 1830 4237 
Q 3078 4237 3750 3654 
Q 4384 3110 4384 2138 
Q 4384 966 3514 410 
Q 2880 0 1901 0 
L 102 0 
L 102 122 
Q 474 147 570 252 
Q 666 358 666 736 
L 666 3520 
Q 666 3891 570 3990 
Q 474 4090 102 4115 
L 102 4237 
z
M 1318 3731 
L 1318 538 
Q 1318 365 1379 301 
Q 1440 237 1626 237 
Q 2125 237 2432 307 
Q 2739 378 3021 570 
Q 3686 1018 3686 2099 
Q 3686 3027 3078 3558 
Q 2803 3802 2476 3901 
Q 2150 4000 1658 4000 
Q 1472 4000 1395 3942 
Q 1318 3885 1318 3731 
z
" transform="scale(0.015625)"/>
    </defs>
    <use xlink:href="#STIXGeneral-Italic-52" transform="translate(0 0.40625)"/>
    <use xlink:href="#STIXGeneral-Regular-63" transform="translate(61.099991 -12.821875) scale(0.7)"/>
    <use xlink:href="#STIXGeneral-Regular-72" transform="translate(92.179987 -12.821875) scale(0.7)"/>
    <use xlink:href="#STIXGeneral-Regular-65" transform="translate(115.489978 -12.821875) scale(0.7)"/>
    <use xlink:href="#STIXGeneral-Regular-64" transform="translate(146.569974 -12.821875) scale(0.7)"/>
    <use xlink:href="#STIXGeneral-Regular-69" transform="translate(181.569963 -12.821875) scale(0.7)"/>
    <use xlink:href="#STIXGeneral-Regular-74" transform="translate(201.029955 -12.821875) scale(0.7)"/>
    <use xlink:href="#STIXGeneral-Regular-28" transform="translate(224.899321 0.40625)"/>
    <use xlink:href="#STIXGeneral-Italic-74" transform="translate(258.199309 0.40625)"/>
    <use xlink:href="#STIXGeneral-Regular-29" transform="translate(285.999297 0.40625)"/>
    <use xlink:href="#STIXGeneral-Regular-3d" transform="translate(353.794992 0.40625)"/>
    <use xlink:href="#STIXGeneral-Regular-48" transform="translate(456.790684 0.40625)"/>
    <use xlink:href="#STIXGeneral-Regular-59" transform="translate(528.990665 0.40625)"/>
    <use xlink:href="#STIXGeneral-Regular-47" transform="translate(601.190647 0.40625)"/>
    <use xlink:href="#STIXGeneral-Regular-28" transform="translate(673.390629 0.40625)"/>
    <use xlink:href="#STIXGeneral-Italic-74" transform="translate(706.690616 0.40625)"/>
    <use xlink:href="#STIXGeneral-Regular-29" transform="translate(734.490604 0.40625)"/>
    <use xlink:href="#STIXGeneral-Regular-2f" transform="translate(779.824163 0.40625)"/>
    <use xlink:href="#STIXGeneral-Regular-4c" transform="translate(819.657722 0.40625)"/>
    <use xlink:href="#STIXGeneral-Regular-51" transform="translate(880.757713 0.40625)"/>
    <use xlink:href="#STIXGeneral-Regular-44" transform="translate(952.957694 0.40625)"/>
    <use xlink:href="#STIXGeneral-Regular-28" transform="translate(1025.157676 0.40625)"/>
    <use xlink:href="#STIXGeneral-Italic-74" transform="translate(1058.457664 0.40625)"/>
    <use xlink:href="#STIXGeneral-Regular-29" transform="translate(1086.257652 0.40625)"/>
   </g>
  </g>
  <g id="text_2">
   <!-- $\mathrm{credit\_spread\_regime}(t) \;=$ -->
   <g transform="translate(0 41.740938) scale(0.13 -0.13)">
    <defs>
     <path id="STIXGeneral-Regular-5f" d="M 3200 -800 
L 0 -800 
L 0 -480 
L 3200 -480 
L 3200 -800 
z
" transform="scale(0.015625)"/>
     <path id="STIXGeneral-Regular-73" d="M 998 1926 
L 1664 1523 
Q 1984 1331 2105 1164 
Q 2227 998 2227 736 
Q 2227 416 1961 176 
Q 1696 -64 1331 -64 
Q 1030 -64 864 -6 
Q 691 51 570 51 
Q 461 51 416 -26 
L 333 -26 
L 333 979 
L 435 979 
Q 538 512 730 294 
Q 922 77 1248 77 
Q 1485 77 1632 211 
Q 1779 346 1779 550 
Q 1779 845 1440 1030 
L 1094 1222 
Q 326 1651 326 2150 
Q 326 2522 566 2730 
Q 806 2938 1210 2938 
Q 1491 2938 1638 2867 
Q 1754 2816 1818 2816 
Q 1862 2816 1920 2880 
L 1990 2880 
L 2022 2010 
L 1926 2010 
Q 1818 2445 1654 2621 
Q 1491 2797 1203 2797 
Q 986 2797 854 2688 
Q 723 2579 723 2362 
Q 723 2253 796 2128 
Q 870 2003 998 1926 
z
" transform="scale(0.015625)"/>
     <path id="STIXGeneral-Regular-70" d="M 1018 2931 
L 1018 2438 
Q 1421 2944 1939 2944 
Q 2406 2944 2707 2560 
Q 3008 2176 3008 1581 
Q 3008 883 2621 409 
Q 2234 -64 1664 -64 
Q 1466 -64 1328 -6 
Q 1190 51 1018 211 
L 1018 -794 
Q 1018 -1094 1120 -1180 
Q 1222 -1267 1581 -1274 
L 1581 -1389 
L 32 -1389 
L 32 -1280 
Q 314 -1254 397 -1171 
Q 480 -1088 480 -838 
L 480 2157 
Q 480 2381 429 2451 
Q 378 2522 218 2522 
Q 115 2522 58 2515 
L 58 2618 
Q 506 2752 979 2944 
L 1018 2931 
z
M 1018 2138 
L 1018 563 
Q 1018 422 1238 281 
Q 1459 141 1683 141 
Q 2029 141 2243 467 
Q 2458 794 2458 1325 
Q 2458 1888 2243 2224 
Q 2029 2560 1670 2560 
Q 1446 2560 1232 2419 
Q 1018 2278 1018 2138 
z
" transform="scale(0.015625)"/>
     <path id="STIXGeneral-Regular-61" d="M 2829 422 
L 2829 243 
Q 2586 -64 2253 -64 
Q 1888 -64 1843 403 
L 1837 403 
Q 1427 -64 909 -64 
Q 608 -64 422 112 
Q 237 288 237 602 
Q 237 1050 685 1350 
Q 992 1555 1837 1869 
L 1837 2214 
Q 1837 2502 1699 2646 
Q 1562 2790 1338 2790 
Q 1146 2790 1018 2697 
Q 890 2605 890 2477 
Q 890 2419 909 2348 
Q 928 2278 928 2208 
Q 928 2112 841 2029 
Q 755 1946 634 1946 
Q 525 1946 441 2029 
Q 358 2112 358 2240 
Q 358 2547 685 2752 
Q 986 2944 1421 2944 
Q 1939 2944 2176 2656 
Q 2291 2522 2323 2384 
Q 2355 2246 2355 1946 
L 2355 723 
Q 2355 301 2554 301 
Q 2682 301 2829 422 
z
M 1837 813 
L 1837 1715 
Q 1248 1510 1018 1293 
Q 800 1094 800 800 
Q 800 557 921 432 
Q 1043 307 1242 307 
Q 1453 307 1613 410 
Q 1747 506 1792 589 
Q 1837 672 1837 813 
z
" transform="scale(0.015625)"/>
     <path id="STIXGeneral-Regular-67" d="M 3008 2483 
L 2477 2483 
Q 2598 2208 2598 1946 
Q 2598 1453 2265 1203 
Q 1933 954 1600 954 
Q 1530 954 1357 973 
L 1235 986 
Q 1107 947 979 812 
Q 851 678 851 582 
Q 851 435 1350 410 
L 2176 371 
Q 2528 358 2739 172 
Q 2950 -13 2950 -314 
Q 2950 -685 2566 -986 
Q 2035 -1395 1286 -1395 
Q 826 -1395 502 -1212 
Q 179 -1030 179 -774 
Q 179 -595 320 -419 
Q 461 -243 806 6 
Q 602 102 534 172 
Q 467 243 467 346 
Q 467 531 762 787 
Q 909 915 1037 1043 
Q 717 1203 579 1401 
Q 442 1600 442 1901 
Q 442 2336 752 2640 
Q 1062 2944 1510 2944 
Q 1766 2944 2022 2848 
L 2163 2797 
Q 2349 2733 2515 2733 
L 3008 2733 
L 3008 2483 
z
M 973 2163 
L 973 2144 
Q 973 1683 1155 1398 
Q 1338 1114 1632 1114 
Q 1850 1114 1978 1270 
Q 2106 1427 2106 1690 
Q 2106 2112 1914 2464 
Q 1754 2765 1446 2765 
Q 1222 2765 1097 2605 
Q 973 2445 973 2163 
z
M 2771 -410 
Q 2771 -230 2595 -163 
Q 2419 -96 1978 -96 
Q 1344 -96 941 -13 
Q 749 -243 688 -348 
Q 627 -454 627 -563 
Q 627 -774 880 -902 
Q 1133 -1030 1555 -1030 
Q 2099 -1030 2435 -860 
Q 2771 -691 2771 -410 
z
" transform="scale(0.015625)"/>
     <path id="STIXGeneral-Regular-6d" d="M 4960 0 
L 3565 0 
L 3565 96 
Q 3834 122 3907 208 
Q 3981 294 3981 576 
L 3981 1894 
Q 3981 2278 3869 2444 
Q 3757 2611 3488 2611 
Q 3264 2611 3107 2521 
Q 2950 2432 2803 2221 
L 2803 608 
Q 2803 301 2896 201 
Q 2989 102 3264 96 
L 3264 0 
L 1830 0 
L 1830 96 
Q 2112 115 2189 188 
Q 2266 262 2266 550 
L 2266 1901 
Q 2266 2611 1850 2611 
Q 1670 2611 1468 2531 
Q 1267 2451 1171 2336 
Q 1088 2240 1088 2227 
L 1088 448 
Q 1088 243 1177 176 
Q 1267 109 1523 96 
L 1523 0 
L 102 0 
L 102 96 
Q 371 102 460 195 
Q 550 288 550 563 
L 550 2150 
Q 550 2387 499 2480 
Q 448 2573 326 2573 
Q 230 2573 122 2547 
L 122 2656 
Q 557 2778 1011 2944 
L 1062 2925 
L 1062 2451 
L 1075 2451 
Q 1363 2752 1584 2848 
Q 1805 2944 2054 2944 
Q 2560 2944 2733 2406 
Q 3232 2944 3776 2944 
Q 4518 2944 4518 1792 
L 4518 493 
Q 4518 282 4582 202 
Q 4646 122 4794 109 
L 4960 96 
L 4960 0 
z
" transform="scale(0.015625)"/>
    </defs>
    <use xlink:href="#STIXGeneral-Regular-63" transform="translate(0 0.703125)"/>
    <use xlink:href="#STIXGeneral-Regular-72" transform="translate(44.399994 0.703125)"/>
    <use xlink:href="#STIXGeneral-Regular-65" transform="translate(77.699982 0.703125)"/>
    <use xlink:href="#STIXGeneral-Regular-64" transform="translate(122.099976 0.703125)"/>
    <use xlink:href="#STIXGeneral-Regular-69" transform="translate(172.09996 0.703125)"/>
    <use xlink:href="#STIXGeneral-Regular-74" transform="translate(199.899948 0.703125)"/>
    <use xlink:href="#STIXGeneral-Regular-5f" transform="translate(227.699936 0.703125)"/>
    <use xlink:href="#STIXGeneral-Regular-73" transform="translate(277.699921 0.703125)"/>
    <use xlink:href="#STIXGeneral-Regular-70" transform="translate(316.599915 0.703125)"/>
    <use xlink:href="#STIXGeneral-Regular-72" transform="translate(366.599899 0.703125)"/>
    <use xlink:href="#STIXGeneral-Regular-65" transform="translate(399.899887 0.703125)"/>
    <use xlink:href="#STIXGeneral-Regular-61" transform="translate(444.299881 0.703125)"/>
    <use xlink:href="#STIXGeneral-Regular-64" transform="translate(488.699875 0.703125)"/>
    <use xlink:href="#STIXGeneral-Regular-5f" transform="translate(538.69986 0.703125)"/>
    <use xlink:href="#STIXGeneral-Regular-72" transform="translate(588.699844 0.703125)"/>
    <use xlink:href="#STIXGeneral-Regular-65" transform="translate(621.999832 0.703125)"/>
    <use xlink:href="#STIXGeneral-Regular-67" transform="translate(666.399826 0.703125)"/>
    <use xlink:href="#STIXGeneral-Regular-69" transform="translate(716.399811 0.703125)"/>
    <use xlink:href="#STIXGeneral-Regular-6d" transform="translate(744.199799 0.703125)"/>
    <use xlink:href="#STIXGeneral-Regular-65" transform="translate(821.999786 0.703125)"/>
    <use xlink:href="#STIXGeneral-Regular-28" transform="translate(866.39978 0.703125)"/>
    <use xlink:href="#STIXGeneral-Italic-74" transform="translate(899.699768 0.703125)"/>
    <use xlink:href="#STIXGeneral-Regular-29" transform="translate(927.499756 0.703125)"/>
    <use xlink:href="#STIXGeneral-Regular-3d" transform="translate(995.295451 0.703125)"/>
   </g>
  </g>
  <g id="text_3">
   <!-- $\qquad\dfrac{R_{\mathrm{credit}}(t) - \mathrm{MA}_{200}\!\left(R_{\mathrm{credit}}\right)\!(t)}{\mathrm{SD}_{200}\!\left(R_{\mathrm{credit}}\right)\!(t)}$ -->
   <g transform="translate(0 82.65) scale(0.13 -0.13)">
    <defs>
     <path id="STIXGeneral-Regular-2212" d="M 3974 1408 
L 410 1408 
L 410 1830 
L 3974 1830 
L 3974 1408 
z
" transform="scale(0.015625)"/>
     <path id="STIXGeneral-Regular-4d" d="M 5530 0 
L 3738 0 
L 3738 122 
Q 4115 147 4214 265 
Q 4314 384 4314 787 
L 4314 3661 
L 2682 0 
L 2592 0 
L 979 3514 
L 979 966 
Q 979 448 1088 294 
Q 1197 141 1574 122 
L 1574 0 
L 77 0 
L 77 122 
Q 358 141 480 205 
Q 602 269 650 432 
Q 698 595 698 966 
L 698 3514 
Q 698 3878 589 3984 
Q 480 4090 90 4115 
L 90 4237 
L 1357 4237 
L 2835 1024 
L 4250 4237 
L 5523 4237 
L 5523 4115 
Q 5178 4109 5072 3993 
Q 4966 3878 4966 3520 
L 4966 717 
Q 4966 378 5072 262 
Q 5178 147 5530 122 
L 5530 0 
z
" transform="scale(0.015625)"/>
     <path id="STIXGeneral-Regular-41" d="M 4525 0 
L 2893 0 
L 2893 122 
Q 3149 122 3245 179 
Q 3334 224 3334 333 
Q 3334 499 3213 781 
L 2950 1382 
L 1274 1382 
L 979 653 
Q 922 506 922 384 
Q 922 237 1027 179 
Q 1133 122 1370 122 
L 1370 0 
L 96 0 
L 96 122 
Q 365 147 486 316 
Q 608 486 902 1190 
L 2221 4314 
L 2349 4314 
L 3923 710 
Q 4064 378 4176 262 
Q 4288 147 4525 122 
L 4525 0 
z
M 2861 1645 
L 2118 3405 
L 1382 1645 
L 2861 1645 
z
" transform="scale(0.015625)"/>
     <path id="STIXGeneral-Regular-32" d="M 3034 877 
L 2688 0 
L 186 0 
L 186 77 
L 1325 1286 
Q 1773 1754 1965 2144 
Q 2157 2534 2157 2950 
Q 2157 3379 1920 3616 
Q 1683 3853 1267 3853 
Q 922 3853 720 3673 
Q 518 3494 326 3021 
L 192 3053 
Q 301 3648 630 3987 
Q 960 4326 1523 4326 
Q 2054 4326 2380 4006 
Q 2707 3686 2707 3200 
Q 2707 2477 1888 1613 
L 832 486 
L 2330 486 
Q 2541 486 2665 569 
Q 2790 653 2944 915 
L 3034 877 
z
" transform="scale(0.015625)"/>
     <path id="STIXGeneral-Regular-30" d="M 3046 2112 
Q 3046 1683 2963 1302 
Q 2880 922 2717 602 
Q 2554 282 2266 96 
Q 1978 -90 1600 -90 
Q 1210 -90 915 108 
Q 621 307 461 640 
Q 301 973 227 1350 
Q 154 1728 154 2150 
Q 154 2746 301 3222 
Q 448 3699 790 4012 
Q 1133 4326 1626 4326 
Q 2253 4326 2649 3712 
Q 3046 3098 3046 2112 
z
M 2432 2080 
Q 2432 3091 2217 3625 
Q 2003 4160 1587 4160 
Q 1190 4160 979 3622 
Q 768 3085 768 2106 
Q 768 1120 979 598 
Q 1190 77 1600 77 
Q 2003 77 2217 598 
Q 2432 1120 2432 2080 
z
" transform="scale(0.015625)"/>
     <path id="STIXGeneral-Regular-53" d="M 3002 2963 
L 2842 2963 
Q 2733 3360 2579 3565 
Q 2189 4064 1651 4064 
Q 1357 4064 1181 3894 
Q 1005 3725 1005 3456 
Q 1005 3328 1069 3206 
Q 1133 3085 1206 2998 
Q 1280 2912 1465 2784 
Q 1651 2656 1766 2589 
Q 1882 2522 2150 2362 
Q 2669 2061 2905 1763 
Q 3142 1466 3142 1107 
Q 3142 576 2771 243 
Q 2400 -90 1837 -90 
Q 1421 -90 1082 58 
Q 915 128 781 128 
Q 704 128 653 70 
Q 602 13 602 -83 
L 461 -83 
L 275 1274 
L 416 1274 
Q 845 141 1734 141 
Q 2074 141 2285 342 
Q 2496 544 2496 858 
Q 2496 1158 2310 1363 
Q 2003 1696 1235 2106 
Q 454 2522 454 3206 
Q 454 3718 768 4022 
Q 1082 4326 1568 4326 
Q 1907 4326 2240 4186 
Q 2413 4109 2522 4109 
Q 2688 4109 2726 4326 
L 2861 4326 
L 3002 2963 
z
" transform="scale(0.015625)"/>
    </defs>
    <use xlink:href="#STIXGeneral-Italic-52" transform="translate(144.399963 56.40625)"/>
    <use xlink:href="#STIXGeneral-Regular-63" transform="translate(205.499954 43.178125) scale(0.7)"/>
    <use xlink:href="#STIXGeneral-Regular-72" transform="translate(236.57995 43.178125) scale(0.7)"/>
    <use xlink:href="#STIXGeneral-Regular-65" transform="translate(259.889941 43.178125) scale(0.7)"/>
    <use xlink:href="#STIXGeneral-Regular-64" transform="translate(290.969937 43.178125) scale(0.7)"/>
    <use xlink:href="#STIXGeneral-Regular-69" transform="translate(325.969926 43.178125) scale(0.7)"/>
    <use xlink:href="#STIXGeneral-Regular-74" transform="translate(345.429918 43.178125) scale(0.7)"/>
    <use xlink:href="#STIXGeneral-Regular-28" transform="translate(369.299284 56.40625)"/>
    <use xlink:href="#STIXGeneral-Italic-74" transform="translate(402.599272 56.40625)"/>
    <use xlink:href="#STIXGeneral-Regular-29" transform="translate(430.39926 56.40625)"/>
    <use xlink:href="#STIXGeneral-Regular-2212" transform="translate(478.139244 56.40625)"/>
    <use xlink:href="#STIXGeneral-Regular-4d" transform="translate(561.079225 56.40625)"/>
    <use xlink:href="#STIXGeneral-Regular-41" transform="translate(649.979219 56.40625)"/>
    <use xlink:href="#STIXGeneral-Regular-32" transform="translate(723.722482 43.178125) scale(0.7)"/>
    <use xlink:href="#STIXGeneral-Regular-30" transform="translate(758.722471 43.178125) scale(0.7)"/>
    <use xlink:href="#STIXGeneral-Regular-30" transform="translate(793.722461 43.178125) scale(0.7)"/>
    <use xlink:href="#STIXGeneral-Regular-28" transform="translate(821.098254 56.40625)"/>
    <use xlink:href="#STIXGeneral-Italic-52" transform="translate(854.398242 56.40625)"/>
    <use xlink:href="#STIXGeneral-Regular-63" transform="translate(915.498233 43.178125) scale(0.7)"/>
    <use xlink:href="#STIXGeneral-Regular-72" transform="translate(946.578228 43.178125) scale(0.7)"/>
    <use xlink:href="#STIXGeneral-Regular-65" transform="translate(969.88822 43.178125) scale(0.7)"/>
    <use xlink:href="#STIXGeneral-Regular-64" transform="translate(1000.968216 43.178125) scale(0.7)"/>
    <use xlink:href="#STIXGeneral-Regular-69" transform="translate(1035.968205 43.178125) scale(0.7)"/>
    <use xlink:href="#STIXGeneral-Regular-74" transform="translate(1055.428196 43.178125) scale(0.7)"/>
    <use xlink:href="#STIXGeneral-Regular-29" transform="translate(1079.297563 56.40625)"/>
    <use xlink:href="#STIXGeneral-Regular-28" transform="translate(1100.56398 56.40625)"/>
    <use xlink:href="#STIXGeneral-Italic-74" transform="translate(1133.863967 56.40625)"/>
    <use xlink:href="#STIXGeneral-Regular-29" transform="translate(1161.663955 56.40625)"/>
    <use xlink:href="#STIXGeneral-Regular-53" transform="translate(369.399963 -60.140625)"/>
    <use xlink:href="#STIXGeneral-Regular-44" transform="translate(424.999954 -60.140625)"/>
    <use xlink:href="#STIXGeneral-Regular-32" transform="translate(498.743217 -73.36875) scale(0.7)"/>
    <use xlink:href="#STIXGeneral-Regular-30" transform="translate(533.743206 -73.36875) scale(0.7)"/>
    <use xlink:href="#STIXGeneral-Regular-30" transform="translate(568.743196 -73.36875) scale(0.7)"/>
    <use xlink:href="#STIXGeneral-Regular-28" transform="translate(596.118989 -60.140625)"/>
    <use xlink:href="#STIXGeneral-Italic-52" transform="translate(629.418977 -60.140625)"/>
    <use xlink:href="#STIXGeneral-Regular-63" transform="translate(690.518968 -73.36875) scale(0.7)"/>
    <use xlink:href="#STIXGeneral-Regular-72" transform="translate(721.598964 -73.36875) scale(0.7)"/>
    <use xlink:href="#STIXGeneral-Regular-65" transform="translate(744.908955 -73.36875) scale(0.7)"/>
    <use xlink:href="#STIXGeneral-Regular-64" transform="translate(775.988951 -73.36875) scale(0.7)"/>
    <use xlink:href="#STIXGeneral-Regular-69" transform="translate(810.98894 -73.36875) scale(0.7)"/>
    <use xlink:href="#STIXGeneral-Regular-74" transform="translate(830.448931 -73.36875) scale(0.7)"/>
    <use xlink:href="#STIXGeneral-Regular-29" transform="translate(854.318298 -60.140625)"/>
    <use xlink:href="#STIXGeneral-Regular-28" transform="translate(875.584715 -60.140625)"/>
    <use xlink:href="#STIXGeneral-Italic-74" transform="translate(908.884703 -60.140625)"/>
    <use xlink:href="#STIXGeneral-Regular-29" transform="translate(936.68469 -60.140625)"/>
    <path d="M 144.399963 13.703125 
L 144.399963 19.953125 
L 1194.963943 19.953125 
L 1194.963943 13.703125 
L 144.399963 13.703125 
z
"/>
   </g>
  </g>
 </g>
</svg>
